<?xml version="1.0" encoding="utf-8"?>
<!-- Generator: Adobe Illustrator 19.0.0, SVG Export Plug-In . SVG Version: 6.00 Build 0)  -->
<svg version="1.1" id="Calque_1" xmlns="http://www.w3.org/2000/svg" xmlns:xlink="http://www.w3.org/1999/xlink" x="0px" y="0px"
	 viewBox="33 234.8 240 238" style="enable-background:new 33 234.8 240 238;" xml:space="preserve">
<style type="text/css">
	.st0{fill:#293D4E;}
</style>
<g>
	<path class="st0" d="M191.4,426c-14.8,7.4-30.5,10.2-49.2,10.2c-45.3,0-83.7-31.4-83.7-80.4c0-53.6,39.4-99.8,100.4-99.8
		c48.2,0,80.7,31.4,80.7,74.9c0,38.8-23.6,61.9-49.2,61.9c-10.8,0-21.7-7.4-20.7-23.1h-1c-9.8,15.7-22.6,23.1-39.4,23.1
		c-15.8,0-29.5-12-29.5-32.4c0-32.4,26.6-61,65-61c11.8,0,22.6,2.8,29.5,5.5l-9.8,47.1c-3.9,19.4-1,28.7,7.9,28.7
		c13.8,0,32-19.5,32-49.1c0-37.9-26.1-62.8-69.4-62.8c-45.3,0-82.7,33.3-82.7,86c0,43.5,30.5,70.3,70.9,70.3
		c15.8,0,30.5-2.8,41.4-9.2L191.4,426z M175.6,314.2c-3-0.9-7.9-1.8-13.8-1.8c-24.6,0-44.3,21.3-44.3,46.2
		c0,11.1,5.9,19.4,18.7,19.4c15.8,0,30.5-19.4,33.5-35.1L175.6,314.2z"/>
</g>
</svg>
