<svg xmlns="http://www.w3.org/2000/svg" width="36.171" height="36.171" viewBox="0 0 36.171 36.171"><defs><style>.cls-1{fill:none;stroke:#fff;stroke-miterlimit:10;stroke-width:3px;}.cls-2{fill:#fff;}</style></defs><title>Fichier 1</title><g id="Calque_2" data-name="Calque 2"><g id="Fichette_Menu" data-name="Fichette Menu"><circle class="cls-1" cx="18.0855" cy="18.0855" r="16.5855"/></g><g id="PictosGache"><path class="cls-2" d="M27.5373,17.2228q-1.8173-4.5185-9.811-4.5181H15.2153v-2.87A.7138.7138,0,0,0,13.993,9.33l-5.74,5.74a.7043.7043,0,0,0,0,1.0092l5.74,5.74a.7177.7177,0,0,0,1.2223-.5045v-2.87h2.5109q1.0987,0,1.9682.0673a14.1626,14.1626,0,0,1,1.7262.24,6.4243,6.4243,0,0,1,1.4917.4772,5.2542,5.2542,0,0,1,1.1826.7787,3.9168,3.9168,0,0,1,.8971,1.1322,6.08,6.08,0,0,1,.5436,1.5528,9.5218,9.5218,0,0,1,.1963,2.0293q0,.6169-.0559,1.38a2.29,2.29,0,0,1-.0282.2634,2.3785,2.3785,0,0,0-.0275.2971.42.42,0,0,0,.0948.28.3291.3291,0,0,0,.264.1115.384.384,0,0,0,.3138-.19,1.3571,1.3571,0,0,0,.1459-.2467q.0666-.146.1512-.3366c.0557-.1269.0955-.2164.1175-.2689a13.4535,13.4535,0,0,0,1.4239-5.0562,10.2169,10.2169,0,0,0-.594-3.7332Zm0,0"/></g></g></svg>