<?xml version="1.0" encoding="utf-8"?>
<!-- Generator: Adobe Illustrator 19.0.0, SVG Export Plug-In . SVG Version: 6.00 Build 0)  -->
<svg version="1.1" id="Calque_1" xmlns="http://www.w3.org/2000/svg" xmlns:xlink="http://www.w3.org/1999/xlink" x="0px" y="0px"
	 viewBox="-41 164.9 512 512" style="enable-background:new -41 164.9 512 512;" xml:space="preserve">
<style type="text/css">
	.st0{display:none;fill:none;stroke:#000000;stroke-width:30;stroke-miterlimit:10;}
</style>
<path d="M252.9,430.2c17.1,36.3,53.9,61.6,96.7,61.8c59.4,0.2,107.7-47.8,107.9-107.1c0.2-59.4-47.8-107.7-107.1-107.9l0,0
	c-42.9-0.2-79.8,24.9-97.2,61.1l-44.4-0.2l-1.4,92.2 M385.9,353.9c17,0.1,30.7,13.9,30.6,30.8s-13.9,30.7-30.8,30.6
	c-17-0.1-30.7-13.9-30.6-30.8C355.2,367.6,369,353.9,385.9,353.9z"/>
<line class="st0" x1="5" y1="291.7" x2="334" y2="620.7"/>
<polyline points="189.8,435.1 155.4,349.6 22.4,403.4 -9.6,461 75.9,481.1 94.8,445.9 132.8,458.1 151.7,422.9 189.8,435.1 "/>
</svg>
