<?xml version="1.0" encoding="UTF-8"?>
<svg width="512pt" height="512pt" version="1.1" viewBox="0 0 512 512" xmlns="http://www.w3.org/2000/svg">
 <g fill="#fff">
  <path d="m256 2.0469c-138.75 0-251.39 112.64-251.39 251.39 0 138.75 112.64 251.39 251.39 251.39 138.75 0 251.39-112.64 251.39-251.39s-112.64-251.39-251.39-251.39zm0 460.29c-115.2 0-208.89-93.695-208.89-208.89 0-115.2 93.695-208.9 208.89-208.9s208.89 93.695 208.89 208.89c0 115.2-93.695 208.9-208.89 208.9z"/>
  <path d="m172.03 192.51h168.45c8.1914 0 14.848-8.1914 14.848-18.434 0-10.238-6.6562-18.434-14.848-18.434l-168.45 0.003907c-8.1914 0-14.848 8.1914-14.848 18.434 0 10.238 6.6562 18.43 14.848 18.43z"/>
  <path d="m339.97 239.11h-167.94c-8.1914 0-14.848 8.1914-14.848 18.434 0 10.238 6.6562 18.434 14.848 18.434h168.45c8.1914 0 14.848-8.1914 14.848-18.434-0.51172-10.242-7.168-18.434-15.359-18.434z"/>
  <path d="m339.97 325.63h-167.94c-8.1914 0-14.848 8.1914-14.848 18.434 0 10.238 6.6562 18.434 14.848 18.434h168.45c8.1914 0 14.848-8.1914 14.848-18.434 0-10.242-7.168-18.434-15.359-18.434z"/>
 </g>
</svg>
