<svg xmlns="http://www.w3.org/2000/svg" viewBox="2.74698371377417 0.000244140625 111.64000201225284 113.351627349854">
  <path d="M32.7856254049821,70.5992326419801C33.414100594191,70.6267610527575 34.0256080099625,70.924182921648 34.4339827963395,71.4658688306808 35.1599845358414,72.4288704395294 34.967983193068,73.796870470047 34.0049857565446,74.5238702297211 25.599985069899,80.8608703613281 14.4569844671769,89.6138706207275 6.89298624482581,97.2588710784912 3.9139847227616,100.271869659424 3.55798477616736,103.426872253418 5.91698450532385,105.917869567871 8.17198461976477,108.300868988037 12.3839845129532,109.257869720459 15.0579833456559,106.885871887207 20.4369849630875,102.114870071411 36.3769835897965,84.6548700332642 45.160983986525,74.7728700637817 45.9619864889664,73.8698704242706 47.3409842917008,73.7888703346252 48.2429847189469,74.5898711681366 49.1439856955094,75.3898706436157 49.2249831625504,76.7708702087402 48.4249839254899,77.6698708534241 42.0569838949723,84.8338708877563 24.1709842154069,104.637870788574 17.9549846121354,110.150871276855 15.4719848104996,112.352870941162 12.3969850012345,112.960868835449 9.50998491731116,112.481868743896 6.91498465028235,112.050868988037 4.47198481049963,110.73987197876 2.74698371377417,108.918869018555 -0.306015305848632,105.694869995117 -1.86501532110742,99.9028701782227 3.78898424592444,94.1888694763184 11.5529851385636,86.3418703079224 22.8639850088639,77.4568705558777 31.3759841391129,71.0368692278862 31.7977351614518,70.7196829244494 32.2968139120621,70.577823549509 32.7856254049821,70.5992326419801z M72.3609847494645,25.1968688964844C67.7369842001481,30.0348701477051 70.7749862143082,36.6108703613281 75.2379836508317,41.2108707427979 77.5159835287614,43.5588703155518 80.4619826742692,45.0088710784912 83.5249862143082,45.2948703765869 86.1769866415543,45.5408706665039 88.6149825521989,44.8568706512451 90.0489882895035,43.4668712615967 90.1419829794449,43.3768711090088 90.2379836508317,43.2828712463379 90.3369826742692,43.1888694763184z M13.6290969320817,9.74185943603516C13.4271401831193,9.71430206298828 13.4816092917008,10.2952461242676 14.0459842154069,12.1038703918457 17.3719844290299,22.7638702392578 28.8639850088639,55.2138700485229 32.9359855124039,60.7398700714111 35.4619864889664,64.1698703765869 35.5579833456559,65.307870388031 37.0539855429215,64.53187084198 37.1659850546403,64.5458703041077 37.2419852682633,64.5378704071045 37.3719863363785,64.4498710632324 40.1959838339371,62.5218706130981 43.7719840475602,60.3878707885742 45.2379836508317,59.4418716430664 45.6879844137711,59.1518707275391 46.2059859701676,59.0478706359863 46.6999854513688,59.1098709106445 47.2999839254899,59.1878700256348 47.8639831015153,59.5118703842163 48.2299842306657,60.051872253418 51.5079841085953,64.8978705406189 55.5139846273942,73.1478705406189 59.7559852072282,81.8818712234497 64.397987312941,91.4418697357178 69.1979827353043,101.327871322632 72.8589858480973,106.207870483398 74.1019820639176,107.865871429443 75.5059813925309,108.839870452881 76.9179839560074,109.019870758057 78.7159881063981,109.25186920166 80.6459884115739,108.17387008667 81.8359832235856,106.277870178223 82.7799834677262,104.769870758057 83.3379821249528,102.463871002197 82.063987679152,100.513870239258 78.0499877401871,94.3618698120117 26.0639838644547,25.5998687744141 15.1409835287614,11.5498695373535 14.5722970434708,10.8186187744141 13.8887538382096,9.77729415893555 13.6290969320817,9.74185943603516z M10.1056098410172,0.195869445800781C10.7079848715348,0.197624206542969 11.3974847265763,0.458366394042969 12.0269860693497,1.21787261962891 21.095985359816,12.1498718261719 81.5879821249528,91.7958698272705 85.7199859091324,98.1278705596924 87.7279815146012,101.2018699646 87.6559829184098,105.215869903564 85.5339812704606,108.597869873047 83.4419860312028,111.9338722229 79.8419875570817,113.797870635986 76.3599852987809,113.351871490479 74.5419845053239,113.117870330811 71.8529815146012,112.141868591309 69.3659820028824,108.827869415283 65.4539870688004,103.613868713379 60.5619849630875,93.5358695983887 55.8279838034196,83.789870262146 52.3119849630875,76.5478706359863 48.6879844137711,69.0898704528809 45.753986305861,64.2808713912964 45.261985726027,64.5838704109192 44.8699836203141,64.8178706169128 44.5019835897965,65.0378713607788 43.4539832541032,65.6638703346252 42.5479850241227,66.2038702964783 39.8339843222184,68.0558702945709 38.8359832235856,68.7378704547882 37.6839827963395,69.0138704776764 36.4979857870621,68.8618713617325 34.0699843832535,68.5498704910278 29.8339843222184,69.0898704528809 23.2119845816178,52.6798706054688 19.959983772902,44.6118698120117 10.4119843908829,16.5338706970215 9.18998426881262,11.4978713989258 7.14698452439734,3.09187316894531 7.73098463502356,1.68987274169922 8.7069854208512,0.727867126464844 8.98798460450598,0.451370239257813 9.50323481049963,0.194122314453125 10.1056098410172,0.195869445800781z M92.9619826742692,0.000244140625C93.5204848715348,0.0086212158203125 94.0759887167496,0.230369567871094 94.4959868856949,0.663871765136719 95.3359832235856,1.52886962890625 95.3149871298356,2.91087341308594 94.4499816366715,3.75086975097656L75.4869842001481,22.148868560791 79.261985726027,25.926872253418 96.8089827963395,8.90287017822266C97.6719817587418,8.06287002563477 99.0549849936051,8.08287048339844 99.8949813314957,8.94887161254883 100.734985298781,9.81287002563477 100.713981575636,11.1948699951172 99.8479842611832,12.0348701477051L82.3479842611832,29.0168685913086 86.2229842611832,32.8948707580566 103.666984505324,15.9708709716797C104.531982369093,15.1308708190918 105.913986153273,15.1508712768555 106.753982491164,16.0168685913086 107.591987557082,16.8808708190918 107.572982735304,18.2628707885742 106.707984871535,19.1028709411621L89.3099822470231,35.9828720092773 93.4269866415543,40.1028709411621C94.3119811483903,39.2108707427979 95.2899856039567,38.2188720703125 96.3559874960465,37.1368713378906 100.531982369093,32.9008712768555 105.728980965285,27.6288719177246 111.299987740187,22.2228698730469 112.164985603957,21.382869720459 113.546981758742,21.4028701782227 114.386985726027,22.268871307373 115.225982613234,23.1348686218262 115.205985970168,24.5168685913086 114.340988106398,25.3568687438965 108.802986092238,30.7288703918457 103.625984139113,35.9808692932129 99.4649810263199,40.200870513916 96.7499846884293,42.9568710327148 94.6049880453629,45.132869720459 93.0899810263199,46.6008701324463 90.7179870077653,48.9028701782227 87.0869826742692,50.0108699798584 83.1219863363785,49.6428699493408 82.7269820639176,49.6068706512451 82.3319854208512,49.5548706054688 81.9409865805192,49.4888706207275 78.9039840170426,48.9848709106445 76.011985726027,47.6368713378906 73.5669860312028,45.6008701324463L61.1469840475602,57.8348703384399C60.628986305861,58.3368701934814 59.9269828268571,58.5328702926636 59.2669829794449,58.4208698272705 58.8239860006852,58.3468704223633 58.3969840475602,58.1368703842163 58.0589827963395,57.7888708114624 57.2199859091324,56.9248704910278 57.2409858175797,55.5428705215454 58.1059836813492,54.7028703689575L70.5169829794449,42.4788703918457C64.4409865805192,35.148868560791,64.0099868246598,27.2028694152832,69.5869826742692,21.7908706665039L91.4099883505387,0.616867065429688C91.8419875570817,0.196868896484375,92.4034881063981,-0.0081329345703125,92.9619826742692,0.000244140625z
" fill="#000000"/>
</svg>