<?xml version="1.0" encoding="UTF-8"?>
<svg width="512pt" height="512pt" version="1.1" viewBox="0 0 512 512" xmlns="http://www.w3.org/2000/svg">
 <path d="m172.05 269.23-44.055-44.16c-8.2031-8.207-19.328-12.816-30.934-12.816-11.602 0-22.73 4.6094-30.934 12.816-8.207 8.2031-12.816 19.332-12.816 30.934s4.6094 22.73 12.816 30.934l74.668 74.668 30.828 30.934h-0.003906c8.2031 8.207 19.332 12.816 30.934 12.816 11.605 0 22.73-4.6094 30.934-12.816l212.27-212.27c8.1992-8.1836 12.809-19.293 12.809-30.879 0-11.586-4.6094-22.695-12.809-30.879-8.2031-8.207-19.332-12.82-30.934-12.82-11.605 0-22.734 4.6133-30.934 12.82l-149.97 150.72c-8.2031 8.207-19.332 12.82-30.934 12.82-11.605 0-22.734-4.6133-30.934-12.82z"/>
</svg>
