<?xml version="1.0" encoding="utf-8"?>
<!-- Generator: Adobe Illustrator 19.0.0, SVG Export Plug-In . SVG Version: 6.00 Build 0)  -->
<svg version="1.1" id="Calque_1" xmlns="http://www.w3.org/2000/svg" xmlns:xlink="http://www.w3.org/1999/xlink" x="0px" y="0px"
	 viewBox="-268 -26.2 739 703.1" style="enable-background:new -268 -26.2 739 703.1;" xml:space="preserve">
<style type="text/css">
	.st0{stroke:#000000;stroke-miterlimit:10;}
</style>
<path class="st0" d="M51-6.5c-159.1,0-288,128.9-288,288s128.9,288,288,288s288-128.9,288-288S210.1-6.5,51-6.5z M224.6,232.7
	L30.5,426.8c-7.5,7.5-17.7,11.7-28.3,11.7c-10.6,0-20.8-4.2-28.3-11.7h0l-28.2-28.3l-68.3-68.3c-7.5-7.5-11.7-17.7-11.7-28.3
	c0-10.6,4.2-20.8,11.7-28.3c7.5-7.5,17.7-11.7,28.3-11.7c10.6,0,20.8,4.2,28.3,11.7l40.3,40.4l0,0c7.5,7.5,17.7,11.7,28.3,11.7
	c10.6,0,20.8-4.2,28.3-11.7L168,176.2c7.5-7.5,17.7-11.7,28.3-11.7c10.6,0,20.8,4.2,28.3,11.7c7.5,7.5,11.7,17.6,11.7,28.2
	S232.1,225.2,224.6,232.7z"/>
</svg>
