<?xml version="1.0" encoding="utf-8"?>
<!-- Generator: Adobe Illustrator 19.0.0, SVG Export Plug-In . SVG Version: 6.00 Build 0)  -->
<svg version="1.1" id="Calque_1" xmlns="http://www.w3.org/2000/svg" xmlns:xlink="http://www.w3.org/1999/xlink" x="0px" y="0px"
	 viewBox="-35 164.9 506 542.9" style="enable-background:new -35 164.9 506 542.9;" xml:space="preserve">
<path d="M102.2,509.1h215.7v14.8H102.2V509.1z M217.2,390c24.4,1.8,46.3,12.4,62.5,28.7c21.5,21.5,29,45.9,29,75.6H110.9
	c0-29.7,7.4-54.1,29-75.6c16.3-16.3,38.2-26.9,62.5-28.7v-8h-13.6v-14.8h42V382h-13.6L217.2,390z M275.4,257h-85.9
	c30.4-9.2,59.2-20.5,85.9-34.2V257z M199.1,419.3l-4-14.3l-2.4,0.6c-16.6,4.6-29.1,10.3-41.6,22.5s-18.6,24.5-23.7,41l-0.7,2.3
	l14.2,4.4l0.7-2.3c4.3-14.1,9.1-24.3,19.8-34.7c10.7-10.4,21.1-14.9,35.2-18.8L199.1,419.3z M382.6,257h-78.8v-83.2
	c-43.6,25.8-79,43.3-128.5,57.8C136.8,242.9,71.3,257,37.4,257v428.8h345.3L382.6,257z"/>
</svg>
