<svg xmlns="http://www.w3.org/2000/svg" width="33.2439" height="33.2439" viewBox="0 0 33.2439 33.2439"><defs><style>.cls-1{fill:#fff;}</style></defs><title>Engine</title><g id="Calque_2" data-name="Calque 2"><g id="Couv"><path class="cls-1" d="M4.4823,19.7969a17.73,17.73,0,0,0,1.6809,3.922L4.1088,25.7734c-.9338.9338-.9338,1.4941-.1868,2.2412l2.0544,2.0544c.7471.7471,1.4941.7471,2.2412-.1868l2.2412-2.2412a12.513,12.513,0,0,0,3.3617,1.3073V31.563c0,1.3073.3735,1.6809,1.4941,1.6809h2.9882c1.1206,0,1.4941-.3735,1.4941-1.6809V28.9484a24.9429,24.9429,0,0,0,3.3617-1.3073L25.4,29.8822c.9338.9338,1.4941.9338,2.2412.1868l2.0544-2.0544c.7471-.7471.7471-1.3073-.1868-2.2412l-2.2412-2.2412a12.4519,12.4519,0,0,0,1.6809-3.922H31.75c1.1206,0,1.4941-.3735,1.4941-1.6809V15.3146c0-1.3073-.3735-1.6809-1.4941-1.6809H28.9484A24.9428,24.9428,0,0,0,27.641,10.272l2.0544-2.0544c.9338-.9338.9338-1.4941.1868-2.2412L28.0145,4.1088c-.7471-.7471-1.4941-.7471-2.2412.1868L23.9057,6.1632a12.4519,12.4519,0,0,0-3.922-1.6809V1.6809C19.9837.3735,19.61,0,18.49,0H15.5014c-1.1206,0-1.4941.3735-1.4941,1.6809V4.2956a17.73,17.73,0,0,0-3.922,1.6809L8.2176,4.1088c-1.1206-.9338-1.6809-.9338-2.6147,0L3.5485,6.1632c-.7471.7471-.7471,1.3073.1868,2.2412L5.79,10.4588a12.513,12.513,0,0,0-1.3073,3.3617H1.4941C.3735,13.8205,0,14.194,0,15.5014v2.6147c0,1.3073.3735,1.6809,1.4941,1.6809Zm7.4705-2.9882a4.8559,4.8559,0,0,1,9.7117,0,4.9445,4.9445,0,0,1-4.8559,4.8559,4.7106,4.7106,0,0,1-4.8559-4.8559"/></g></g></svg>