<svg xmlns="http://www.w3.org/2000/svg" width="34.4401" height="32.3804" viewBox="0 0 34.4401 32.3804"><defs><style>.cls-1{fill:#fff;}</style></defs><title>Home</title><g id="Calque_2" data-name="Calque 2"><g id="Angles"><path class="cls-1" d="M28.7621,15.867a.9761.9761,0,0,0-.9909.9924v13.568H20.7325v-5.54a.9815.9815,0,0,0-.9568-.9736h-5.089a1.0046,1.0046,0,0,0-1.0116.9736v5.54H6.6534V17.3108a.974.974,0,0,0-1.9477,0V31.4218a.9646.9646,0,0,0,.9553.9587h9.0258a.9642.9642,0,0,0,.9548-.9587v-5.54h3.1413v5.54a.9731.9731,0,0,0,.9929.9587h8.9863a.9646.9646,0,0,0,.9568-.9587V16.8594a.9686.9686,0,0,0-.9568-.9924Z"/><path class="cls-1" d="M34.16,16.6395,26.3273,8.7736V3.4122a.9943.9943,0,0,0-1.0112-.9909.97.97,0,0,0-.9573.9909V6.8076L17.8978.3085A.9445.9445,0,0,0,17.23,0a.972.972,0,0,0-.7031.3085L.3011,16.5326a.93.93,0,0,0,0,1.37.9308.9308,0,0,0,1.3726,0L17.23,2.3837,32.7513,18.05a.9574.9574,0,0,0,.7031.2536A1.0956,1.0956,0,0,0,34.16,18.05a1.0263,1.0263,0,0,0,0-1.41Z"/></g></g></svg>