<?xml version="1.0" encoding="UTF-8"?>
<svg width="512pt" height="512pt" version="1.1" viewBox="0 0 512 512" xmlns="http://www.w3.org/2000/svg">
 <path d="m385.54 198.66h-14.336v-55.297c0-66.047-47.617-117.76-115.71-117.76-68.098 0.003906-114.69 52.738-114.69 117.76v54.785 0h-14.336c-31.742 0-57.344 25.602-57.855 57.855v173.05c0 31.742 25.602 57.344 57.855 57.855h259.07c31.742 0 57.344-25.602 57.855-57.855v-173.05c0-31.742-26.109-57.344-57.855-57.344zm-216.06 0v-55.297c0-49.152 33.793-89.09 86.016-89.09 51.711 0 87.039 38.91 87.039 89.09v54.785 0h-173.05v0.51172zm244.73 230.4c0 15.871-12.801 28.672-28.672 28.672h-259.07c-15.871 0-28.672-12.801-28.672-28.672v-173.05c0-15.871 12.801-28.672 28.672-28.672h259.07c15.871 0 28.672 12.801 28.672 28.672zm-129.54-115.2c0 10.754-5.6328 19.969-14.336 25.09h-0.51172 0.51172v47.105c0 8.1914-6.6562 14.336-14.336 14.336-8.1914 0-14.336-6.6562-14.336-14.336v-47.105h0.51172-0.51172c-8.7031-5.1211-14.336-14.336-14.336-25.09 0-15.871 12.801-28.672 28.672-28.672 15.871-0.51172 28.672 12.289 28.672 28.672z"/>
</svg>
