<?xml version="1.0" encoding="UTF-8"?><svg id="a" xmlns="http://www.w3.org/2000/svg" width="158" height="216" viewBox="0 0 158 216"><defs><style>.b{fill:#fff;}</style></defs><g><path class="b" d="M28.8267,150.0869c2.5322,0,4.7861,.2095,6.7598,.6294,1.9736,.4194,3.7021,1.002,5.1865,1.748,1.4834,.7461,2.7383,1.6357,3.7637,2.6689,1.0264,1.0337,1.8574,2.1602,2.4941,3.3799,.6377,1.2202,1.0996,2.5137,1.3877,3.8809,.2871,1.3677,.4307,2.7661,.4307,4.1958,0,1.958-.2178,3.9434-.6523,5.9556-.4355,2.0127-1.0645,3.959-1.8877,5.8389-.8242,1.8804-1.8379,3.644-3.042,5.291-1.2051,1.6475-2.584,3.085-4.1377,4.3125s-3.2637,2.1948-5.1279,2.9019c-1.8652,.707-3.8779,1.0605-6.0371,1.0605-.7305,0-1.4766-.0547-2.2383-.1631-.7607-.1089-1.499-.2563-2.2139-.4429s-1.3906-.396-2.0283-.6294c-.6367-.2329-1.1963-.4736-1.6777-.7227-.2021-.062-.3613-.1357-.4785-.2212-.1162-.0854-.2061-.1865-.2676-.3032-.0625-.1162-.1016-.2598-.1162-.4312-.0156-.1709-.0234-.3882-.0234-.6528,0-2.5791,.0654-5.2212,.1982-7.9248,.1318-2.7041,.3994-5.3457,.8037-7.9253s.9863-5.0386,1.748-7.3774c.7617-2.3384,1.7715-4.4326,3.0303-6.2817,1.1035-.7612,2.1055-1.1421,3.0068-1.1421,1.1348,0,2.082,.6372,2.8438,1.9111-.7148,.9639-1.3135,2.0361-1.7949,3.2168-.4814,1.1812-.8857,2.4204-1.2119,3.7178-.3262,1.2979-.5986,2.6221-.8154,3.9741-.2178,1.3521-.4199,2.6729-.6064,3.9629-.2178,1.4297-.4004,2.6533-.5479,3.6709-.1475,1.0181-.2646,1.9077-.3496,2.6689-.085,.7617-.1475,1.4302-.1865,2.0049s-.0576,1.1343-.0576,1.6782c0,.5752,.0186,1.0566,.0576,1.4448,.0391,.3887,.1318,.6997,.2803,.9326,.1475,.2329,.373,.4004,.6758,.501,.3027,.1016,.7109,.1519,1.2236,.1519,1.5537,0,3.0303-.3066,4.4287-.9209,1.3984-.6138,2.6885-1.437,3.8691-2.4707,1.1807-1.0332,2.2412-2.2339,3.1816-3.6016,.9404-1.3672,1.7402-2.812,2.4014-4.3354,.6602-1.5225,1.1689-3.0728,1.5264-4.6499s.5361-3.0962,.5361-4.5571c0-1.8027-.2949-3.415-.8857-4.8369s-1.418-2.626-2.4824-3.6128-2.3428-1.7402-3.834-2.2612c-1.4922-.52-3.1318-.7808-4.9189-.7808-1.3047,0-2.5986,.0781-3.8809,.2334-1.2812,.1553-2.4707,.396-3.5664,.7227-1.0947,.3262-2.0586,.7422-2.8896,1.2466-.832,.5054-1.457,1.1074-1.877,1.8066-1.1338,1.7563-2.0664,3.1118-2.7969,4.0674-.7305,.9561-1.3438,1.4336-1.8418,1.4336-.6836,0-1.0254-.7842-1.0254-2.354,0-1.5229,.1982-2.8906,.5947-4.1025s.9482-2.2881,1.6543-3.2285c.707-.9399,1.5469-1.7402,2.5176-2.4009,.9717-.6602,2.0361-1.2041,3.1934-1.6313,1.1582-.4272,2.3896-.7422,3.6953-.9443,1.3047-.2017,2.6416-.3027,4.0088-.3027Z"/><path class="b" d="M56.5416,190.5518c-1.4609,0-2.7393-.2642-3.835-.7925-1.0947-.5283-2.0078-1.2393-2.7383-2.1328s-1.2783-1.9268-1.6436-3.1001-.5479-2.4048-.5479-3.6948c0-.8696,.085-1.7905,.2568-2.7617,.1709-.9712,.4307-1.9233,.7803-2.8555,.3496-.9326,.7891-1.8218,1.3174-2.6689,.5283-.8467,1.1455-1.5928,1.8525-2.2378,.707-.6445,1.5-1.1572,2.3779-1.5386,.8779-.3804,1.8535-.5708,2.9258-.5708,.8701,0,1.6777,.1396,2.4238,.4194s1.3945,.6724,1.9463,1.1772,.9824,1.1152,1.2939,1.8296c.3105,.7148,.4658,1.5151,.4658,2.4009,0,.9639-.2373,1.9272-.7109,2.8906s-1.1309,1.8726-1.9697,2.7271-1.8379,1.6162-2.9951,2.2842c-1.1582,.6685-2.4121,1.189-3.7646,1.562,.2334,.4194,.4629,.769,.6875,1.0488,.2256,.2798,.4551,.4976,.6885,.6523,.2324,.1558,.4775,.2646,.7334,.3267,.2568,.062,.5322,.0933,.8281,.0933,.9316,0,1.915-.1865,2.9482-.5596s2.04-.8394,3.0186-1.3984c.9795-.5596,1.9033-1.1694,2.7744-1.8301,.8691-.6602,1.6074-1.2856,2.2139-1.8765l3.0068,3.1235c-1.3672,1.4146-2.8203,2.6655-4.3584,3.7529-.6689,.4663-1.3877,.9248-2.1562,1.3755-.7695,.4507-1.5771,.8506-2.4248,1.2002-.8467,.3496-1.7246,.6294-2.6338,.8394-.9092,.2095-1.8291,.3145-2.7617,.3145Zm-3.1006-10.9556c.5596,0,1.1689-.1436,1.8301-.4312,.6602-.2871,1.2744-.6562,1.8418-1.1069,.5664-.4507,1.0449-.9399,1.4336-1.4688,.3877-.5278,.582-1.041,.582-1.5381,0-.6997-.1279-1.2744-.3848-1.7251-.2559-.4507-.5703-.6758-.9434-.6758-.6689,0-1.2393,.1245-1.7139,.3726-.4736,.249-.8701,.5713-1.1885,.9678-.3184,.396-.5752,.8467-.7695,1.3516-.1943,.5054-.3418,1.0142-.4424,1.5269-.1016,.5127-.167,1.0103-.1982,1.4917-.0312,.4819-.0469,.894-.0469,1.2354Z"/><path class="b" d="M72.2056,190.5518c-.8389,0-1.6201-.3691-2.3428-1.1074-.7227-.7378-1.3516-1.7285-1.8877-2.9717s-.9561-2.6841-1.2588-4.3237-.4551-3.3604-.4551-5.1631c0-1.3828,.1016-2.8862,.3037-4.5103,.2012-1.624,.4971-3.2983,.8857-5.0234,.3877-1.7246,.8506-3.4575,1.3867-5.1978s1.1416-3.4111,1.8184-5.0117c.6758-1.6001,1.4102-3.0962,2.2021-4.4868,.793-1.3906,1.624-2.603,2.4941-3.6362,.8701-1.0337,1.7793-1.8452,2.7275-2.436,.9473-.5903,1.9111-.8857,2.8906-.8857,.668,0,1.2197,.1514,1.6543,.4546,.4355,.3027,.7773,.7031,1.0254,1.2002,.249,.4976,.4238,1.0605,.5254,1.6899,.1006,.6294,.1514,1.2705,.1514,1.9233,0,1.4604-.168,2.9482-.502,4.4634s-.7842,3.0386-1.3516,4.5688c-.5674,1.5308-1.2236,3.0649-1.9697,4.6035s-1.5225,3.0654-2.3311,4.5806c-.8076,1.5146-1.6201,3.0068-2.4355,4.4751-.8154,1.4688-1.5811,2.9019-2.2959,4.3008-.0781,.1553-.1592,.3574-.2451,.606-.085,.2485-.167,.5166-.2441,.8042-.0781,.2876-.1562,.5942-.2334,.9204-.0781,.3267-.1396,.645-.1865,.9561v.3262c0,.4043,.043,.7964,.1279,1.1772,.0859,.3809,.1904,.7227,.3154,1.0254,.124,.3032,.2559,.5444,.3955,.7227,.1406,.1787,.2725,.2681,.3965,.2681,.2949,0,.6328-.062,1.0137-.1865,.3809-.124,.7852-.2915,1.2129-.501,.4268-.21,.8652-.4507,1.3164-.7227s.8857-.5479,1.3057-.8276c.9785-.6523,2.0049-1.4062,3.0771-2.2607l1.9111,4.895c-1.3838,.9946-2.751,1.8804-4.1025,2.6572-.5908,.3262-1.2002,.6489-1.8301,.9673-.6289,.3184-1.2627,.6021-1.8994,.8506-.6377,.249-1.2588,.4468-1.8652,.5942-.6055,.1479-1.1729,.2217-1.7012,.2217Zm.0234-18.6475c.6992-1.2432,1.4414-2.6416,2.2256-4.1958,.7852-1.5537,1.5273-3.1543,2.2266-4.8018,.6992-1.647,1.3047-3.29,1.8174-4.9297,.5137-1.6392,.8398-3.166,.9795-4.5806,0-.4502-.0117-.835-.0352-1.1538-.0234-.3179-.0967-.4775-.2217-.4775-.4502,0-.9355,.2915-1.4561,.874-.5215,.5825-1.042,1.3716-1.5625,2.3657-.5205,.9946-1.0176,2.1528-1.4912,3.4731-.4746,1.3213-.8975,2.7271-1.2705,4.2192-.373,1.4917-.668,3.0264-.8857,4.6035s-.3262,3.1118-.3262,4.6035Z"/><path class="b" d="M92.3443,172.6504c.124-.5283,.3457-.9985,.6641-1.4106,.3184-.4111,.6836-.7573,1.0957-1.0371s.8428-.4893,1.2939-.6294c.4502-.1396,.8779-.2095,1.2822-.2095,.4814,0,.8857,.1045,1.2119,.3145s.4893,.54,.4893,.9907c0,.1396-.0234,.3032-.0703,.4893-.0928,.4043-.209,.9561-.3496,1.6553-.1396,.6992-.291,1.4917-.4541,2.3774s-.3301,1.8223-.501,2.8086c-.1719,.9873-.335,1.9697-.4893,2.9487-.3887,2.3003-.7852,4.771-1.1895,7.4126,.4668-.2642,.9707-.5903,1.5156-.979,.543-.3882,1.1494-.9092,1.8174-1.562,.668-.6523,1.4141-1.4722,2.2383-2.459,.8232-.9868,1.748-2.2183,2.7734-3.6943l1.1191,5.1743c-.2803,.4819-.6406,.9756-1.084,1.4805-.4424,.5049-.9326,1.0103-1.4688,1.5151s-1.0957,.9946-1.6777,1.4683c-.583,.4741-1.1543,.9209-1.7139,1.3403-1.3203,.9941-2.7422,1.958-4.2656,2.8901-.2949,1.6626-.6445,3.2827-1.0488,4.8604-.4043,1.5767-.8818,3.0532-1.4336,4.4287-.5518,1.375-1.1807,2.6377-1.8877,3.7876s-1.5078,2.1367-2.4004,2.9604c-.8945,.8232-1.8926,1.4644-2.9961,1.9229-1.1035,.458-2.3232,.6875-3.6592,.6875-.5283,0-1.0996-.0542-1.7129-.1631-.6143-.1089-1.1816-.3262-1.7021-.6523-.5205-.3267-.9512-.7925-1.293-1.3989-.3418-.606-.5137-1.4141-.5137-2.4238,0-.6992,.1797-1.4883,.5361-2.3662,.3584-.8779,.8477-1.8027,1.4688-2.7734,.6211-.9717,1.3594-1.9814,2.2148-3.0303,.8545-1.0493,1.7832-2.0942,2.7852-3.1353,1.002-1.0415,2.0508-2.0669,3.1465-3.0767,1.0957-1.0107,2.2031-1.9736,3.3223-2.8906l.6289-2.1675c-.8389,.7456-1.7129,1.3481-2.6221,1.8062-.9092,.4585-1.791,.6875-2.6455,.6875-.7461,0-1.4727-.1514-2.1797-.4541-.707-.3032-1.333-.7383-1.877-1.3057-.5439-.5669-.9785-1.2588-1.3047-2.0742-.3262-.8159-.4893-1.7368-.4893-2.7622,0-1.3521,.0654-2.5952,.1973-3.7295s.3232-2.2144,.5713-3.2402c.249-1.0254,.5596-2.0161,.9326-2.9717,.373-.9561,.7998-1.9233,1.2822-2.9023,.3574-.6992,.8701-1.231,1.5381-1.5967,.668-.3647,1.3203-.5474,1.958-.5474,.5439,0,1.0098,.1362,1.3984,.4077,.3887,.272,.583,.6958,.583,1.2705,0,.1709-.0195,.3574-.0586,.5591-.0391,.2021-.1045,.4199-.1982,.6528-.2793,.7148-.5557,1.5581-.8271,2.5293-.2725,.9712-.5127,1.9658-.7227,2.9834-.21,1.0181-.377,2.0161-.501,2.9951-.125,.979-.1865,1.8413-.1865,2.5874,0,.3887,.0273,.7656,.082,1.1304,.0537,.3652,.1514,.6919,.291,.979,.1396,.2881,.3262,.521,.5596,.6992,.2324,.1792,.5283,.2681,.8857,.2681,.5742,0,1.0957-.248,1.5615-.7456,.4658-.4971,.8701-1.0957,1.2119-1.7949s.6182-1.4219,.8271-2.168c.21-.7456,.3457-1.3672,.4082-1.8647l1.6318-6.8525Zm-10.9092,35.0571c.6533,0,1.2705-.1904,1.8535-.5713s1.1191-.8818,1.6084-1.5034,.9355-1.3286,1.3398-2.1211,.7617-1.6045,1.0723-2.436c.3105-.8311,.5752-1.6431,.793-2.4355s.3877-1.5,.5127-2.1211c-.6064,.4038-1.2236,.8857-1.8535,1.4453-.6289,.5591-1.2432,1.1611-1.8408,1.8062-.5986,.6445-1.166,1.3091-1.7021,1.9932-.5361,.6836-1.0059,1.3403-1.4102,1.9697-.4043,.6289-.7227,1.2153-.9551,1.7598-.2334,.5435-.3496,.9941-.3496,1.3521,0,.5747,.3105,.8623,.9316,.8623Z"/><path class="b" d="M101.2945,181.6011c.8701-.7461,1.5771-1.3672,2.1211-1.8647,.5439-.4971,1.0107-.9517,1.3994-1.3638,.3877-.4116,.7412-.8276,1.0605-1.2471,.3184-.4194,.6953-.9165,1.1299-1.4917,.4355-.5747,.9639-1.2778,1.585-2.1094,.6221-.8311,1.4297-1.8687,2.4248-3.1118,.2012-.2798,.4268-.5513,.6758-.8159,.248-.2642,.5244-.501,.8271-.7109s.6367-.3804,1.0029-.5127c.3643-.1318,.7725-.1982,1.2236-.1982,.7451,0,1.3203,.0815,1.7246,.2446s.6992,.3613,.8857,.5947c.1865,.2329,.2949,.4775,.3262,.7339s.0469,.478,.0469,.6646c0,.373-.1484,.7847-.4434,1.2354s-.6211,.8857-.9785,1.3052-.6953,.8042-1.0137,1.1538c-.3193,.3496-.502,.6104-.5479,.7808,0,.4819,.0342,.9209,.1045,1.3174,.0703,.396,.1631,.7847,.2803,1.165,.1162,.3813,.2363,.7852,.3604,1.2124,.125,.4272,.2451,.9204,.3613,1.48,.1172,.5596,.21,1.2046,.2803,1.9346,.0693,.731,.1045,1.5933,.1045,2.5874,.5596-.373,1.1621-.7109,1.8066-1.0137,.6445-.3032,1.3174-.6177,2.0166-.9443,.6992-.3262,1.418-.6875,2.1562-1.084,.7373-.396,1.4795-.874,2.2256-1.4331l.0234,5.2212c-.9639,.7456-2.0781,1.4453-3.3447,2.0977-1.2666,.6528-2.5957,1.228-3.9863,1.7251-1.3906,.4976-2.7969,.8896-4.2188,1.1768-1.4219,.2876-2.7705,.4316-4.0439,.4316-.917,0-1.7715-.0859-2.5645-.2563-.792-.1709-1.4883-.439-2.0859-.8042-.5986-.3652-1.084-.8428-1.457-1.4336-.373-.5903-.5986-1.3057-.6758-2.1445-.2178,.0464-.4316,.0776-.6406,.0933-.21,.0156-.416,.0234-.6182,.0234-.249,0-.4814-.0078-.6992-.0234s-.4043-.0737-.5596-.1748-.2793-.2642-.373-.4897c-.0928-.2251-.1396-.5479-.1396-.9673,0-.373,.0928-.7183,.2793-1.0371,.1865-.3184,.4043-.6021,.6533-.8511,.248-.248,.4971-.4658,.7461-.6523,.248-.1865,.4346-.334,.5586-.4429Zm2.9844,2.9834c.1865,0,.3916,.1167,.6172,.3496,.2256,.2334,.4854,.4897,.7812,.7695,.2949,.2793,.6367,.5361,1.0254,.769s.8311,.3496,1.3281,.3496c.6064,0,1.1074-.1011,1.5039-.3032,.3965-.2017,.7109-.4697,.9443-.8042,.2324-.334,.3955-.7222,.4893-1.165,.0928-.4429,.1396-.9053,.1396-1.3872,0-.4194-.0273-.8467-.0811-1.2817-.0547-.4351-.125-.8511-.21-1.2471-.0859-.3965-.1787-.7695-.2803-1.1191-.1006-.3496-.1904-.6484-.2676-.8975l-5.9902,5.9673Z"/><path class="b" d="M121.4576,181.6011c.8701-.7461,1.5771-1.3672,2.1211-1.8647,.5439-.4971,1.0107-.9517,1.3994-1.3638,.3877-.4116,.7412-.8276,1.0605-1.2471,.3184-.4194,.6953-.9165,1.1299-1.4917,.4355-.5747,.9639-1.2778,1.585-2.1094,.6221-.8311,1.4297-1.8687,2.4248-3.1118,.2012-.2798,.4268-.5513,.6758-.8159,.248-.2642,.5244-.501,.8271-.7109s.6367-.3804,1.0029-.5127c.3643-.1318,.7725-.1982,1.2236-.1982,.7451,0,1.3203,.0815,1.7246,.2446s.6992,.3613,.8857,.5947c.1865,.2329,.2949,.4775,.3262,.7339s.0469,.478,.0469,.6646c0,.373-.1484,.7847-.4434,1.2354s-.6211,.8857-.9785,1.3052-.6953,.8042-1.0137,1.1538c-.3193,.3496-.502,.6104-.5479,.7808,0,.4819,.0342,.9209,.1045,1.3174,.0703,.396,.1631,.7847,.2803,1.165,.1162,.3813,.2363,.7852,.3604,1.2124,.125,.4272,.2451,.9204,.3613,1.48,.1172,.5596,.21,1.2046,.2803,1.9346,.0693,.731,.1045,1.5933,.1045,2.5874,.5596-.373,1.1621-.7109,1.8066-1.0137,.6445-.3032,1.3174-.6177,2.0166-.9443,.6992-.3262,1.418-.6875,2.1562-1.084,.7373-.396,1.4795-.874,2.2256-1.4331l.0234,5.2212c-.9639,.7456-2.0781,1.4453-3.3447,2.0977-1.2666,.6528-2.5957,1.228-3.9863,1.7251-1.3906,.4976-2.7969,.8896-4.2188,1.1768-1.4219,.2876-2.7705,.4316-4.0439,.4316-.917,0-1.7715-.0859-2.5645-.2563-.792-.1709-1.4883-.439-2.0859-.8042-.5986-.3652-1.084-.8428-1.457-1.4336-.373-.5903-.5986-1.3057-.6758-2.1445-.2178,.0464-.4316,.0776-.6406,.0933-.21,.0156-.416,.0234-.6182,.0234-.249,0-.4814-.0078-.6992-.0234s-.4043-.0737-.5596-.1748-.2793-.2642-.373-.4897c-.0928-.2251-.1396-.5479-.1396-.9673,0-.373,.0928-.7183,.2793-1.0371,.1865-.3184,.4043-.6021,.6533-.8511,.248-.248,.4971-.4658,.7461-.6523,.248-.1865,.4346-.334,.5586-.4429Zm2.9844,2.9834c.1865,0,.3916,.1167,.6172,.3496,.2256,.2334,.4854,.4897,.7812,.7695,.2949,.2793,.6367,.5361,1.0254,.769s.8311,.3496,1.3281,.3496c.6064,0,1.1074-.1011,1.5039-.3032,.3965-.2017,.7109-.4697,.9443-.8042,.2324-.334,.3955-.7222,.4893-1.165,.0928-.4429,.1396-.9053,.1396-1.3872,0-.4194-.0273-.8467-.0811-1.2817-.0547-.4351-.125-.8511-.21-1.2471-.0859-.3965-.1787-.7695-.2803-1.1191-.1006-.3496-.1904-.6484-.2676-.8975l-5.9902,5.9673Z"/></g><g><circle class="b" cx="78.8947" cy="9.6436" r="6.2736"/><rect class="b" x="5.7693" y="70.9699" width="146.2509" height="5.0017" rx="2.5008" ry="2.5008"/><g><path class="b" d="M94.1342,127.6957c-7.7555-7.6396-15.7874-14.4552-22.4344-22.4257-5.9349-7.1167-11.1904-15.0346-13.7063-24.2759,3.2822-1.108,4.5281-.8165,6.2117,2.0592,3.3097,5.6532,7.2349,10.7969,12.9377,14.1256,2.5621,1.4955,5.7128,2.85,8.5462,2.756,2.5554-.0848,5.2287-1.9757,7.4685-3.5971,.9083-.6575,.835-2.7041,1.1581-4.1301,.6944-3.0649,1.4355-6.1226,2.0035-9.2116,.3818-2.0765,1.522-2.6944,3.4827-2.4819,1.1949,.1295,2.4152,.0239,3.3397,.024-.2831,3.8731-.8562,7.3893-.6845,10.8687,.1165,2.3615,.8932,4.8872,2.0541,6.9586,2.284,4.0754,3.4505,8.388,3.9317,12.9494,.0722,.6841,.0842,1.6504-.3143,2.0662-4.6356,4.838-9.3554,9.5953-13.9945,14.3146Z"/><path class="b" d="M78.7019,94.6723c-5.0504-2.8965-9.0337-7.8228-12.0855-13.5981,3.0988-1.2275,4.0985-.7791,5.588,2.0051,2.1894,4.0923,4.5323,8.1026,6.4975,11.5931Z"/><path class="b" d="M112.7152,113.1186l-23.3714,24.1808,10.0662,9.7292,23.3713-24.1808-10.0662-9.7292Zm-14.6074,28.452c-1.7842,0-3.2306-1.4464-3.2306-3.2306s1.4464-3.2306,3.2306-3.2306,3.2306,1.4464,3.2306,3.2306-1.4464,3.2306-3.2306,3.2306Z"/></g><path class="b" d="M78.8948,9.0888c-33.8949,0-61.3721,25.5233-61.3721,57.0078h122.7441c0-31.4845-27.4772-57.0078-61.372-57.0078Zm40.2671,32.5633c-1.531,1.531-7.474-1.9298-13.2741-7.7299s-9.2609-11.7431-7.7299-13.2741,7.474,1.9298,13.2741,7.7299c5.8001,5.8001,9.2608,11.7431,7.7299,13.2741Z"/></g></svg>