<?xml version="1.0" encoding="UTF-8"?>
<svg width="512pt" height="512pt" version="1.1" viewBox="0 0 512 512" xmlns="http://www.w3.org/2000/svg">
 <path d="m468.48 199.68h-3.0703v-40.961c0-11.266-9.2148-20.48-19.969-20.48h-399.36c-11.266 0-20.48 9.2148-20.48 20.48l0.003906 194.56c0 11.266 9.2148 20.48 20.48 20.48h399.36c11.266 0 19.969-9.2148 19.969-20.48v-40.961h3.0703c10.238 0 17.922-8.7031 17.922-19.457l-0.003906-73.727c0-10.754-8.1914-19.457-17.918-19.457zm-2.5586 92.16h-20.992l0.51172 61.441h-399.36v-194.56h399.36v61.441l20.484-0.003906zm-399.36-115.2h80.895v158.72h-80.895z"/>
</svg>
