<svg id="Calque_1" data-name="Calque 1" xmlns="http://www.w3.org/2000/svg" width="29.3625" height="28.9572" viewBox="0 0 29.3625 28.9572"><title>Menu</title><path d="M2.2232.1857c-.249.2454-.3983.6036.123,2.75C2.6585,4.2213,5.0961,11.39,5.9267,13.45c1.69,4.19,2.772,4.052,3.3918,4.1317a1.2134,1.2134,0,0,0,.8516-.2059c.6931-.473.9243-.6108,1.192-.7707.094-.056.1942-.1159.32-.193.7492,1.2276,1.6742,3.1322,2.5722,4.9811A47.5849,47.5849,0,0,0,17.71,27.7855a2.6625,2.6625,0,0,0,1.786,1.155,2.5937,2.5937,0,0,0,2.39-3.887C20.8309,23.4367,5.3861,3.1017,3.0708.3105A.5689.5689,0,0,0,2.2232.1857Zm18.671,26.9488a1.35,1.35,0,0,1-1.2557.7,1.63,1.63,0,0,1-1.0362-.7182,47.3012,47.3012,0,0,1-3.3455-6.2105,53.18,53.18,0,0,0-2.9426-5.5734.557.557,0,0,0-.7639-.1559c-.3742.2416-1.2872.7861-2.0086,1.2783a.1005.1005,0,0,1-.0809.0213c-.3823.1978-.4066-.0926-1.0518-.9684C7.37,14.0972,4.4352,5.8116,3.5864,3.09c-.3293-1.0554.0215-.4735.2794-.1415C6.6543,6.536,19.9276,24.0923,20.9526,25.663A1.3717,1.3717,0,0,1,20.8942,27.1345Z"/><path d="M29.2052,5.6856a.5571.5571,0,0,0-.788-.0117c-1.4227,1.38-2.75,2.7261-3.8157,3.8076q-.4085.4147-.7477.7575L22.8027,9.187l4.4417-4.31a.5573.5573,0,0,0-.7763-.8L22.0145,8.3985l-.99-.99,4.4683-4.3355a.5573.5573,0,1,0-.7761-.8L20.2371,6.62l-.9639-.9647L24.1147.9572a.5572.5572,0,0,0-.7761-.8L17.767,5.5635c-1.424,1.3815-1.314,3.4106.2375,5.2818l-3.1688,3.1211a.5573.5573,0,0,0,.7763.8l3.1711-3.1234a4.5058,4.5058,0,0,0,2.138.9926c.1.0168.2006.03.3015.039a3.199,3.199,0,0,0,2.5451-.7765c.3868-.375.9342-.9306,1.6276-1.6339,1.0623-1.0774,2.3843-2.4184,3.7982-3.79A.5581.5581,0,0,0,29.2052,5.6856Zm-7.88,5.8787A3.4088,3.4088,0,0,1,19.21,10.5216c-1.1395-1.1745-1.9153-2.8534-.7347-4.0885l4.59,4.5933-.0733.0715A2.13,2.13,0,0,1,21.3255,11.5643Z"/><path d="M12.3172,19.0441a.5572.5572,0,0,0-.7869.0464C9.2876,21.6139,5.2178,26.0717,3.8445,27.29a1.7353,1.7353,0,0,1-2.3339-.247c-.6023-.6361-.5114-1.4417.2492-2.2109a69.2007,69.2007,0,0,1,6.9222-5.8049.5574.5574,0,0,0-.6711-.89A70.1865,70.1865,0,0,0,.9675,24.0477a2.5519,2.5519,0,0,0-.2662,3.7612,3.1186,3.1186,0,0,0,1.7267.9094,2.5532,2.5532,0,0,0,2.1562-.5952c1.587-1.4075,6.1539-6.4637,7.7795-8.2929A.5567.5567,0,0,0,12.3172,19.0441Z"/></svg>