<svg xmlns="http://www.w3.org/2000/svg" xmlns:xlink="http://www.w3.org/1999/xlink" width="171.51" height="442.3634" viewBox="0 0 171.51 442.3634"><defs><style>.cls-1{fill:none;}.cls-2{clip-path:url(#clip-path);}.cls-3{fill:#ffd05b;}.cls-4{fill:#e2c396;}.cls-5{fill:#324a5e;}.cls-6{fill:#e6e9ee;}.cls-7{fill:#858a8e;}.cls-8{fill:#fff;}.cls-9{fill:#ff7058;}.cls-10{fill:#f1543f;}.cls-11{fill:#2b3b4e;}</style><clipPath id="clip-path" transform="translate(-25.6329 -40)"><rect class="cls-1" width="219" height="360"/></clipPath></defs><g id="Calque_2" data-name="Calque 2"><g id="Calque_1-2" data-name="Calque 1"><g class="cls-2"><path class="cls-3" d="M124.896,106.6439l-13.55-.6773h0l-13.55.6773s1.016,12.1955-5.0812,23.0353v15.2436l18.6314,6.0972h0l17.954-5.7586v-16.937A48.8866,48.8866,0,0,1,124.896,106.6439Z" transform="translate(-25.6329 -40)"/><path class="cls-4" d="M129.3,128.3244v16.938l-17.954,5.7586h0l-18.6314-6.0972V129.6792a31.1214,31.1214,0,0,0,3.0491-7.7917,46.9217,46.9217,0,0,0,1.6934-15.5822l13.55-.6774h0l13.55.6774a43.4663,43.4663,0,0,0,1.6934,14.9049Q127.7747,124.7678,129.3,128.3244Z" transform="translate(-25.6329 -40)"/><polygon class="cls-5" points="132.461 442.363 137.203 299.633 134.154 261.765 85.036 261.765 85.036 321.612 104.344 442.363 132.461 442.363"/><polygon class="cls-5" points="67.081 442.363 86.39 321.612 86.39 261.765 37.271 261.765 34.223 299.633 38.965 442.363 67.081 442.363"/><path class="cls-6" d="M197.05,258.4054C192.6459,193.365,176.725,156.78,176.725,156.78h0c-38.2788-7.1142-45.7318-25.0673-45.7318-25.0673-.6773,4.7426-1.016,9.1464-1.6934,13.55H93.0531c-.6774-4.4038-1.0161-8.8076-1.6934-13.55,0,0-7.453,17.9541-45.7318,25.0673,0,0,9.485,40.6506,13.2115,151.9194H159.788v-5.9164a47.32,47.32,0,0,0,5.42-3.3878A142.87,142.87,0,0,0,188.92,280.086,27.3414,27.3414,0,0,0,197.05,258.4054Zm-34.8911,6.436c0-11.1785,1.0161-23.3739,2.0321-34.891l8.469,27.7777Z" transform="translate(-25.6329 -40)"/><path class="cls-7" d="M126.5894,121.55l-1.0161,1.3548a14.4253,14.4253,0,0,1-9.8237,5.42l-2.71.3387a9.64,9.64,0,0,1-4.4039,0l-2.3717-.3387a15.8774,15.8774,0,0,1-9.8237-5.42l-.6774-.6774a46.9191,46.9191,0,0,0,1.6934-15.5823l13.55-.6773h0l13.55.6773C124.896,106.6439,124.5573,113.42,126.5894,121.55Z" transform="translate(-25.6329 -40)"/><path class="cls-4" d="M111.0071,62.6066H85.2614l4.0652,43.36a15.5407,15.5407,0,0,0,3.3878,8.469l3.7265,4.4038a14.4237,14.4237,0,0,0,9.8237,5.42l2.71.3387a9.6424,9.6424,0,0,0,4.4039,0l2.71-.3387a15.878,15.878,0,0,0,9.8237-5.42l3.7265-4.4038a15.5483,15.5483,0,0,0,3.3878-8.469l3.7265-43.36Z" transform="translate(-25.6329 -40)"/><path class="cls-4" d="M139.8009,88.3522c-1.3547,3.3878-4.0652,5.42-6.4359,4.4039s-3.0491-4.4039-1.6934-7.453c1.3547-3.3878,4.0651-5.42,6.4359-4.4038C140.14,81.5767,141.1556,84.9644,139.8009,88.3522Z" transform="translate(-25.6329 -40)"/><path class="cls-4" d="M82.2123,88.3522c1.3548,3.3878,4.0652,5.42,6.4359,4.4039s3.0492-4.4039,1.6935-7.453c-1.3548-3.3878-4.0652-5.42-6.436-4.4038C81.8736,81.5767,80.8576,84.9644,82.2123,88.3522Z" transform="translate(-25.6329 -40)"/><path class="cls-5" d="M89.6653,52.7829s21.0031-31.5042,50.1356,4.4038l-3.0491-1.016s5.42,5.7585.6773,26.0843c0,0-3.0491.3387-4.4038,7.453,0,0-.6774-16.26-5.0812-19.6475,0,0-27.439,1.6934-34.5523-4.7425,0,0-6.7746,11.5171-4.0652,27.7778,0,0-5.0812-10.1624-8.13-15.5823a26.3822,26.3822,0,0,1-3.0491-12.5342C79.1642,59.2188,81.1963,52.7829,89.6653,52.7829Z" transform="translate(-25.6329 -40)"/><path class="cls-3" d="M99.489,302.1051l-2.0321-.6774,2.71-4.7425,1.3547,1.0161C103.5541,299.3947,102.1994,302.7825,99.489,302.1051Z" transform="translate(-25.6329 -40)"/><path class="cls-8" d="M128.6214,126.2924s7.453,7.4529-2.032,29.81c0,0-10.5011-12.1955-17.2767-9.8237C109.3127,146.2785,124.896,141.536,128.6214,126.2924Z" transform="translate(-25.6329 -40)"/><path class="cls-8" d="M94.0691,126.2924s-7.4529,7.4529,2.0321,29.81c0,0,10.5011-12.1955,17.2767-9.8237C113.3779,146.2785,97.7956,141.536,94.0691,126.2924Z" transform="translate(-25.6329 -40)"/><path class="cls-9" d="M155.1359,150.1994a79.2447,79.2447,0,0,1-15.3079-7.3087L109.56,227.8519,79.2923,143.1951a64.6455,64.6455,0,0,1-15.3079,7.3088c.3479,1.2178,7.6545,47.505-9.0457,70.9536h0l1.3913,50.246h0l1.0435,36.8473,18.7872,20.403,33.7473-36.8472,33.7472,36.8473,18.7873-20.4031,2.087-87.3978h0C147.83,197.7045,155.1359,151.4172,155.1359,150.1994Z" transform="translate(-25.6329 -40)"/><circle class="cls-10" cx="84.7137" cy="200.2498" r="3.7265"/><circle class="cls-10" cx="84.7137" cy="214.816" r="3.7265"/><circle class="cls-10" cx="84.7137" cy="229.7209" r="3.7265"/><circle class="cls-10" cx="84.7137" cy="244.2872" r="3.7265"/><path class="cls-6" d="M96.78,311.2505,79.5029,403.3913s29.4711,5.7586,28.7938,5.0812C107.6193,407.4565,96.78,311.2505,96.78,311.2505Z" transform="translate(-25.6329 -40)"/><path class="cls-4" d="M102.8768,316.3327l-9.485-.3387-1.0161-5.7586-2.0321-10.84,4.7426,1.3547a3.2216,3.2216,0,0,0,3.3878-1.3547h0a3.2333,3.2333,0,0,0-1.0161-4.0652l-7.1143-4.7425-22.3578-16.26-8.13,16.26,11.8568,10.84a12.8962,12.8962,0,0,1,3.0491,4.4039l7.4529,20.3247c.3387.3387.3387,1.0161.6774,1.3548a4.0311,4.0311,0,0,0,3.7265,1.3547l16.26-1.6934-.001-10.84Z" transform="translate(-25.6329 -40)"/><path class="cls-8" d="M96.78,311.2505v104.675h43.36V347.4972c-.3386-19.9861-19.6474-36.2467-43.36-36.2467Z" transform="translate(-25.6329 -40)"/><path class="cls-6" d="M25.6408,258.4054c-.6773,25.7457,42.344,47.4252,48.4412,50.4743L84.2444,281.102l-23.7126-16.26-10.84-7.453,8.469-27.7777A685.6235,685.6235,0,0,0,45.9656,156.78S27.3352,193.3649,25.6408,258.4054Z" transform="translate(-25.6329 -40)"/><path class="cls-11" d="M121.8468,144.2464l-10.84,6.7746,10.84,6.7746A4.8491,4.8491,0,0,0,129.3,153.73v-4.7425C129.3,144.5851,124.896,142.2133,121.8468,144.2464Z" transform="translate(-25.6329 -40)"/><path class="cls-11" d="M100.1664,144.2464l10.84,6.7746-10.84,6.7746a4.8491,4.8491,0,0,1-7.453-4.0652v-4.7425C92.7144,144.5851,97.1182,142.2133,100.1664,144.2464Z" transform="translate(-25.6329 -40)"/><circle class="cls-5" cx="85.3742" cy="111.021" r="5.7586"/><path class="cls-5" d="M111.3458,102.58c-6.0973-3.0491-8.469,6.0972-18.2927,1.016,0,0,3.7264,10.5011,18.2927,4.0652,14.2275,6.4359,18.2927-4.0652,18.2927-4.0652C119.8148,109.0157,117.443,99.5307,111.3458,102.58Z" transform="translate(-25.6329 -40)"/></g></g></g></svg>