<?xml version="1.0" encoding="utf-8"?>
<!-- Generator: Adobe Illustrator 19.0.0, SVG Export Plug-In . SVG Version: 6.00 Build 0)  -->
<svg version="1.1" id="Calque_1" xmlns="http://www.w3.org/2000/svg" xmlns:xlink="http://www.w3.org/1999/xlink" x="0px" y="0px"
	 viewBox="-41 164.9 512 512" style="enable-background:new -41 164.9 512 512;" xml:space="preserve">
<style type="text/css">
	.st0{fill:none;stroke:#000000;stroke-width:30;stroke-miterlimit:10;}
</style>
<path d="M255.4,448.9c37.9,13.4,81.7,5.2,112-25.1c42-42,42-110.1,0-152.1c-42-42-110.1-42-152.1,0l0,0
	c-30.3,30.3-38.6,74.1-25.1,112l-31.4,31.4l64.4,65.9 M295,300.7c12-12,31.4-12,43.4,0s12,31.4,0,43.4s-31.4,12-43.4,0
	S283,312.7,295,300.7z"/>
<line class="st0" x1="5" y1="291.7" x2="334" y2="620.7"/>
<polyline points="199.5,506.8 134.5,441.5 33,543 26.1,608.5 112.6,593.7 116.3,553.9 156.1,550.3 159.7,510.4 199.5,506.8 "/>
</svg>
