<?xml version="1.0" encoding="UTF-8"?>
<svg width="512pt" height="512pt" version="1.1" viewBox="0 0 512 512" xmlns="http://www.w3.org/2000/svg">
 <path d="m0 199.46c103.66-103.66 252.86-131.93 381.64-84.809l-37.691 39.266c-106.8-29.84-226.16-3.1406-309.4 80.098zm97.375 259.14c-15.707 15.707-36.121-6.2812-21.988-21.988l383.21-383.21c14.137-14.137 36.121 7.8516 21.988 21.988zm332.96-321.96c29.84 17.277 56.539 37.691 81.668 62.82l-34.551 34.551c-25.129-25.129-53.398-45.547-83.238-59.68zm-215.16 282.7c25.129-25.129 56.539-25.129 81.668 0l-40.836 40.836-40.836-40.836zm-80.098-84.809c20.418-20.418 45.547-34.551 70.676-42.406l-56.539 56.539-14.137-14.137zm146.06-48.688c36.121 4.7109 69.105 21.988 95.805 48.688l-34.551 34.551c-29.84-29.84-72.246-40.836-111.51-32.98l50.258-50.258zm-213.59-18.848c64.395-64.395 153.91-89.52 237.15-73.816l-45.547 43.977c-56.539 0-113.08 20.418-157.05 64.395l-34.551-34.551zm290.55-58.109c31.41 12.562 61.25 31.41 86.379 58.109l-34.551 34.551c-26.699-26.699-56.539-43.977-89.52-54.969z"/>
</svg>
