<svg xmlns="http://www.w3.org/2000/svg" viewBox="0 0.005767822265625 203.640998840332 362.3009376525884">
  <path d="M152.835000038147,347.678703308105C156.874997138977,347.678705215454 160.148996829987,350.953704833984 160.148995399475,354.993703842163 160.148996829987,359.031705856323 156.874997138977,362.306705474854 152.835000038147,362.306705474854 148.792997360229,362.306705474854 145.516996383667,359.031705856323 145.516998291016,354.993703842163 145.516996383667,350.953704833984 148.792997360229,347.678705215454 152.835000038147,347.678703308105z M114.61600112915,342.354702949524C119.736995697021,342.354704856873 123.884998321533,346.504705429077 123.88500213623,351.622709274292 123.884998321533,356.740705490112 119.736995697021,360.890705108643 114.61600112915,360.890705108643 109.499996185303,360.890705108643 105.34899520874,356.740705490112 105.348999023438,351.622709274292 105.34899520874,346.504705429077 109.499996185303,342.354704856873 114.61600112915,342.354702949524z M183.509994506836,337.029703140259C186.450996398926,337.029705047607 188.835996627808,339.414705276489 188.835998535156,342.354702949524 188.835996627808,345.292705535889 186.450996398926,347.677705764771 183.509994506836,347.677705764771 180.569996833801,347.677705764771 178.18999671936,345.292705535889 178.189999580383,342.354702949524 178.18999671936,339.414705276489 180.569996833801,337.029705047607 183.509994506836,337.029703140259z M169.383993864059,328.591706153245C170.937996864319,328.591705322266 172.193996906281,329.847705364227 172.193999767303,331.40070772171 172.193996906281,332.953705310822 170.937996864319,334.209705352783 169.383993864059,334.20970916748 167.832996964455,334.209705352783 166.574996948242,332.953705310822 166.57499780072,331.40070772171 166.574996948242,329.847705364227 167.832996964455,328.591705322266 169.383993864059,328.591706153245z M135.678998947144,328.031705796719C136.612997055054,328.031705319881 137.36499786377,328.783705323935 137.36499786377,329.714703202248 137.36499786377,330.647705316544 136.612997055054,331.401705265045 135.678998947144,331.401706457138 134.749996185303,331.401705265045 133.995998382568,330.647705316544 133.995994567871,329.714703202248 133.995998382568,328.783705323935 134.749996185303,328.031705319881 135.678998947144,328.031705796719z M87.7049942016602,324.041702747345C90.8379974365234,324.041705131531 93.3769989013672,326.582705259323 93.3769989013672,329.714703202248 93.3769989013672,332.849705219269 90.8379974365234,335.38770532608 87.7049942016602,335.387709140778 84.5690002441406,335.38770532608 82.0299987792969,332.849705219269 82.0299987792969,329.714703202248 82.0299987792969,326.582705259323 84.5690002441406,324.041705131531 87.7049942016602,324.041702747345z M198.031995773315,308.58670425415C201.128997802734,308.586706161499 203.640998840332,311.096704483032 203.640998840332,314.193703651428 203.640998840332,317.290705680847 201.128997802734,319.801705360413 198.031995773315,319.801703453064 194.933996200562,319.801705360413 192.421997070313,317.290705680847 192.421998977661,314.193703651428 192.421997070313,311.096704483032 194.933996200562,308.586706161499 198.031995773315,308.58670425415z M79.2459945678711,176.100708007813C76.8479995727539,182.111709594727 74.7369995117188,188.501708984375 72.5429992675781,195.15071105957 63.8649978637695,221.424705505371 54.2289962768555,250.611701965332 22.6709899902344,261.488708496094 24.1629943847656,262.441703796387 25.7539978027344,263.433708190918 27.4400024414063,264.453704833984 29.0399932861328,265.416706085205 30.677001953125,266.369705200195 32.3260040283203,267.311702728271 50.2119979858398,258.578704833984 62.0219955444336,240.553703308105 62.0219955444336,240.553703308105 56.8209991455078,254.963706970215 50.0029983520508,266.706707000732 45.1019973754883,274.143711090088 50.5639953613281,276.871704101563 56.1639938354492,279.452705383301 61.8239974975586,281.820709228516 62.4850006103516,282.099704742432 63.1539993286133,282.375705718994 63.8299942016602,282.653705596924 69.3919982910156,274.389705657959 72.3889999389648,265.43070602417 72.3889999389648,265.430702209473L71.1579971313477,285.537704467773C73.6969985961914,286.499706268311 76.125,287.38370513916 78.5410003662109,288.223705291748 82.9589996337891,289.760704040527 87.5859985351563,291.238704681396 92.3029937744141,292.631706237793 94.6839981079102,272.650703430176 107.658996582031,257.816703796387 107.659000396729,257.816703796387 102.43399810791,274.792705535889 102.79899597168,287.611705780029 104.277992248535,295.902702331543 105.187995910645,296.13370513916 106.097995758057,296.360706329346 107.012996673584,296.580703735352 112.585998535156,297.934705734253 118.311996459961,299.143705368042 124.091991424561,300.204708099365 121.81799697876,291.702705383301 124.48999786377,284.228706359863 124.489994049072,284.228706359863 125.759998321533,290.279705047607 127.90599822998,296.48970413208 129.728996276855,301.191703796387 131.485996246338,301.48370552063 133.267997741699,301.767705917358 135.062995910645,302.031702041626 136.152996063232,302.191705703735 137.247997283936,302.350706100464 138.342998504639,302.502704620361 121.974998474121,274.318706512451 133.290996551514,245.881706237793 143.488996505737,220.257705688477 146.019996643066,213.897705078125 148.454996109009,207.782707214355 150.447999954224,201.791702270508z M74.2459945678711,164.480712890625L117.65599822998,180.141708374023 161.784003257751,196.064712524414C151.768997192383,234.777702331543 118.202995300293,275.186706542969 159.470999240875,313.997706413269 150.521997451782,313.35870552063 141.93999671936,312.389705657959 133.703998565674,311.164701461792 131.534996032715,310.844705581665 129.393997192383,310.506706237793 127.276008605957,310.14870262146 119.456996917725,308.831705093384 111.970996856689,307.285705566406 104.83699798584,305.555704116821 100.04899597168,304.397705078125 95.4179992675781,303.164705276489 90.9440002441406,301.861705780029 85.5739974975586,300.299705505371 80.4199981689453,298.654705047607 75.5059967041016,296.945707321167 72.625,295.941703796387 69.827995300293,294.916706085205 67.1069946289063,293.879707336426 64.0559997558594,292.713706970215 61.1019973754883,291.531703948975 58.2519989013672,290.337699890137 50.4899978637695,287.088706970215 43.4919967651367,283.757705688477 37.2420043945313,280.515701293945 31.8009948730469,277.691703796387 26.9429931640625,274.936706542969 22.6689910888672,272.356704711914 7.72799682617188,263.328704833984 0,256.455703735352 0,256.455703735352 57.0559997558594,252.902702331543 56.7849960327148,200.81470489502 74.2459945678711,164.480712890625z M179.049357414246,0.005767822265625C179.291152954102,-0.002838134765625 179.534152030945,-0.0018310546875 179.777826309204,0.009063720703125 180.677539825439,0.049224853515625 181.586434364319,0.223968505859375 182.477999687195,0.54571533203125 187.238996505737,2.25970458984375 189.701997756958,7.50869750976563 187.985996246338,12.2666931152344L144.316999435425,133.279708862305C147.380996704102,135.353698730469 150.448997497559,138.041702270508 153.384996414185,141.522705078125 167.016996949911,157.684707641602 167.244996964931,174.476699829102 162.817995548248,191.604705810547L119.216999053955,175.871704101563 76.327995300293,160.397705078125C83.827995300293,144.790710449219 94.6339950561523,132.12370300293 114.849002838135,127.617706298828 114.84899520874,127.617706298828 119.943996429443,126.117706298828 127.144996643066,126.918701171875L170.755993843079,6.04971313476563C172.065391540527,2.42852783203125,175.422366142273,0.13482666015625,179.049357414246,0.005767822265625z
" fill="#fff"/>
</svg>
