<svg xmlns="http://www.w3.org/2000/svg" viewBox="0 1.49 45 29.369000000000003">
  <path d="M29.23,20.524L25.168,18.18 26.756,17.545C26,15.877 24.364,14.803 22.515,14.803 20.6,14.803 18.849,16.003 18.16,17.79L15.982,16.949C17.017,14.27 19.642,12.47 22.515,12.47 25.324,12.47 27.817,14.115 28.93,16.677L30.417,16.084z M22.515,26.47C19.727,26.47,17.174,24.77,16.082,22.218L14.583,22.797 15.813,18.476 19.833,20.768 18.266,21.374C19.014,23.032 20.683,24.137 22.515,24.137 24.439,24.137 26.14,22.984 26.853,21.199L29.02,22.063C27.952,24.74,25.398,26.47,22.515,26.47 M38.518,13.272C38.863,11.42 38.702,8.237 35.655,6.015 33.956,4.776 30.394,3.615 26.956,6.279 22.852,-1.836 14.523,-0.449 11.56,1.49 8.719,3.347 5.451,6.914 6.693,13.218 2.856,14.276 0,17.72 0,21.886 0,26.843 4.017,30.859 8.973,30.859L36.027,30.859C40.983,30.859 45,26.843 45,21.886 45,17.796 42.503,14.517 38.518,13.272

" fill="#fff"/>
</svg>
