<?xml version="1.0" encoding="utf-8"?>
<!-- Generator: Adobe Illustrator 19.0.0, SVG Export Plug-In . SVG Version: 6.00 Build 0)  -->
<svg version="1.1" id="Calque_1" xmlns="http://www.w3.org/2000/svg" xmlns:xlink="http://www.w3.org/1999/xlink" x="0px" y="0px"
	 viewBox="-41 164.9 512 512" style="enable-background:new -41 164.9 512 512;" xml:space="preserve">
<path d="M213.9,235.9c-22.3,0.6-40.4,19.1-40.4,41.5c0,18.3,12.1,34,28.7,39.4v28.5H74.4c-21.9,0-39.9,18.1-39.9,40v77.5v25.6v77.5
	c0,21.9,18,39.9,39.9,39.9h281.2c21.9,0,40-18,40-39.9v-77.5v-25.6v-77.5c0-21.9-18.1-40-40-40H227.9v-28.5
	c16.5-5.5,28.6-21.1,28.6-39.4c0-22.8-18.7-41.5-41.5-41.5C214.6,235.9,214.3,235.9,213.9,235.9L213.9,235.9z M215,261.5
	c8.9,0,15.9,7,15.9,15.9s-6.9,15.9-15.9,15.9s-15.9-7-15.9-15.9S206.1,261.5,215,261.5z M74.4,371h281.2c8.2,0,14.4,6.2,14.4,14.4
	v180.6c0,8.2-6.2,14.4-14.4,14.4H74.4c-8.2,0-14.4-6.2-14.4-14.4V476c0-0.1,0-0.3,0-0.4v-90.2C60,377.1,66.2,371,74.4,371L74.4,371z
	 M151.4,391.2c-27,0-49.3,22.2-49.3,49.2c0,27,22.2,49.1,49.3,49.1s49.2-22.1,49.2-49.1S178.5,391.2,151.4,391.2L151.4,391.2z
	 M278.6,391.2c-27,0-49.2,22.2-49.2,49.2c0,27,22.2,49.1,49.2,49.1s49.2-22.1,49.2-49.1S305.6,391.2,278.6,391.2L278.6,391.2z
	 M151.4,416.8c13.2,0,23.6,10.4,23.6,23.6S164.6,464,151.4,464s-23.6-10.4-23.6-23.6S138.2,416.8,151.4,416.8L151.4,416.8z
	 M278.6,416.8c13.2,0,23.6,10.4,23.6,23.6S291.8,464,278.6,464S255,453.6,255,440.4S265.4,416.8,278.6,416.8L278.6,416.8z
	 M163.9,534.4c-3.4,0-6.7,1.4-9.1,3.8c-2.4,2.4-3.7,5.7-3.7,9.1c0,7,5.7,12.7,12.8,12.8h102.2c7,0,12.7-5.7,12.8-12.8
	c0-3.4-1.3-6.7-3.7-9.1s-5.6-3.8-9-3.8L163.9,534.4z"/>
</svg>
