<svg id="Icons" height="512" viewBox="0 0 74 74" width="512" xmlns="http://www.w3.org/2000/svg"><path d="m58.9 64a1 1 0 0 1 -.642-1.767c.724-.607 1.4-1.228 2.075-1.9a1 1 0 0 1 1.414 1.414c-.714.714-1.435 1.375-2.2 2.02a1 1 0 0 1 -.647.233z"/><path d="m37 72a34.963 34.963 0 1 1 33.805-25.9 1 1 0 1 1 -1.93-.52 32.965 32.965 0 1 0 -16.337 20.548 1 1 0 1 1 .943 1.764 35.07 35.07 0 0 1 -16.481 4.108z"/><path d="m65.479 56.58a1 1 0 0 1 -.837-1.546c.541-.83 1.051-1.693 1.516-2.565a1 1 0 0 1 1.764.942c-.492.922-1.032 1.836-1.6 2.715a1 1 0 0 1 -.843.454z"/><path d="m37 59a20.376 20.376 0 0 1 -12.97-36.1 1 1 0 1 1 1.27 1.544 18.385 18.385 0 1 0 23.394 0 1 1 0 1 1 1.276-1.544 20.376 20.376 0 0 1 -12.97 36.1z"/><path d="m37 38a1 1 0 0 1 -1-1v-21a1 1 0 0 1 2 0v21a1 1 0 0 1 -1 1z"/></svg>