<svg xmlns="http://www.w3.org/2000/svg" viewBox="0 0.0104878715937957 276.774002075195 312.1821608645842">
  <path d="M190.544006347656,252.583655205905L190.544006347656,268.897665826022 213.018005371094,268.897665826022 235.490997314453,268.897665826022 257.966995239258,268.897665826022 257.966995239258,252.583655205905 235.490997314453,252.583655205905 213.018005371094,252.583655205905z M62.1130046844482,207.597662774264C71.7690010070801,219.504660454928 84.6420021057129,229.804648247897 101.375999450684,235.596655694186 109.421997070313,238.494650689303 117.790000915527,239.78066143149 126.47900390625,239.78066143149 135.168998718262,239.78066143149 143.858001708984,238.172659722506 151.903999328613,235.2746494686 156.08699798584,233.988653985201 160.272003173828,232.056662408053 163.812004089355,230.126654473483 159.626998901367,239.136648980319 157.053001403809,249.11466106528 157.053001403809,259.734640923678 157.053001403809,276.792654839694 163.812004089355,292.560660210787 174.432006835938,304.46864971274 159.626998901367,309.296652642428 143.537002563477,311.870657769381 127.123001098633,311.870657769381 74.6650009155273,311.870657769381 28.6430006027222,286.124655572115 0,246.860648003756 24.7810001373291,228.516653863131 48.9180006980896,215.000662652194 62.1130046844482,207.597662774264z M224.315994262695,207.275656548678C253.279998779297,207.275656548678 276.774002075195,230.769659844576 276.774002075195,259.734640923678 276.774002075195,288.699667779147 253.279998779297,312.192648736178 224.315994262695,312.192648736178 195.350997924805,312.192648736178 171.858001708984,288.699667779147 171.858001708984,259.734640923678 171.858001708984,230.769659844576 195.350997924805,207.275656548678 224.315994262695,207.275656548678z M152.582641601563,66.2998264705529C147.18189239502,66.4171512996545 140.98649597168,67.7883594905725 133.880996704102,70.8206547176233 107.490997314453,82.0846546565881 87.8600006103516,81.4406574642053 74.9859962463379,78.5446537410608 58.8950004577637,89.8086536800256 63.4010009765625,108.152655450045 64.3660011291504,111.370657769381L64.3660011291504,111.692656365572 63.4010028839111,111.692656365572C58.2520008087158,111.692656365572 52.7800006866455,115.554655877291 58.5730018615723,135.82965740317 63.0790004730225,151.277655450045 67.2630004882813,155.783652154147 70.4810009002686,156.105658379733 73.3780002593994,174.771658745944 88.181999206543,198.58666118735 111.675003051758,206.95465740317 116.502998352051,208.563650933444 121.652000427246,209.528662530123 126.801002502441,209.528662530123 131.95100402832,209.528662530123 137.099998474121,208.563650933444 141.927001953125,206.95465740317 165.743003845215,198.58666118735 180.225006103516,174.771658745944 183.121994018555,156.105658379733 186.339004516602,156.105658379733 190.524002075195,151.599661675631 195.029006958008,135.82965740317 200.822006225586,115.876654473483 195.350997924805,111.692656365572 189.880004882813,111.692656365572L188.914993286133,111.692656365572C188.914993286133,111.692656365572,185.587203979492,65.5828236019006,152.582641601563,66.2998264705529z M137.62052154541,0.0104878715937957C156.92993927002,-0.450558396638371 175.759963989258,14.3690927898278 179.259002685547,28.6606567775598 179.582000732422,28.6606548702111 179.582000732422,28.9826553737512 179.90299987793,28.9826515590539 183.764999389648,29.3046558772912 217.23600769043,32.8446567928186 207.90299987793,93.6706531917444 207.580993652344,96.8886555110803 207.257995605469,100.428656426608 206.615005493164,103.968657342135 206.936996459961,104.612654534518 207.257995605469,104.934653130709 207.580993652344,105.255652276217 215.304000854492,115.554655877291 212.408004760742,130.037649956881 209.511001586914,140.335654107272 207.580993652344,146.772650567233 204.363006591797,159.001654473483 196.638000488281,166.082648125826 190.845001220703,187.644659844576 174.110000610352,212.103659478365 147.077003479004,221.758658257662 140.639999389648,224.011648980319 133.880996704102,225.298651543795 127.123001098633,225.298651543795 120.042999267578,225.298651543795 113.284004211426,224.011648980319 106.847999572754,221.758658257662 79.8139991760254,212.103659478365 63.0790004730225,187.32265361899 57.2859983444214,166.082648125826 49.5620002746582,159.001654473483 46.3440003395081,146.772650567233 44.4130001068115,140.335654107272 41.5160004943609,130.359656182467 38.6200006008148,115.554655877291 46.344003200531,105.255652276217 46.6660003662109,104.612654534518 46.9870004653931,104.290655938326 47.308997631073,103.968657342135 43.7690005302429,86.5896519100061 37.0110006332397,38.3156574642053 74.0209999084473,15.7876575862756 74.0209999084473,15.787655678927 65.9759998321533,9.35065540426876 66.6189994812012,0.017656653537415 66.6190013885498,0.0176555713405833 110.388000488281,5.16765579336789 131.628997802734,0.661656168638729 133.620338439941,0.269405571161769 135.623001098633,0.0581838799407706 137.62052154541,0.0104878715937957z
" fill="#fff"/>
</svg>
