<?xml version="1.0" encoding="utf-8"?>
<!-- Generator: Adobe Illustrator 19.0.0, SVG Export Plug-In . SVG Version: 6.00 Build 0)  -->
<svg version="1.1" id="Calque_1" xmlns="http://www.w3.org/2000/svg" xmlns:xlink="http://www.w3.org/1999/xlink" x="0px" y="0px"
	 viewBox="-41 164.9 512 512" style="enable-background:new -41 164.9 512 512;" xml:space="preserve">
<g>
	<path d="M390,394.5c0.7,0.7,1.2,1.7,1.1,2.8c0,1.1-0.4,2.1-1.1,2.8l-41.2,41.2c-1.5,1.5-4,1.5-5.6,0c-34-34-80.2-53-128.2-53
		s-94.2,19.1-128.2,53c-1.5,1.5-4,1.5-5.6,0L40,400.1c-0.7-0.7-1.2-1.8-1.1-2.8c0-1,0.4-2,1.1-2.8c46.4-46.4,109.4-72.4,175-72.4
		S343.6,348.2,390,394.5L390,394.5z"/>
	<path d="M314.2,470.3c0.7,0.8,1.1,1.8,1.1,2.8c0,1-0.4,2-1.1,2.8L273,517.1c-0.7,0.8-1.7,1.2-2.8,1.2c-1.1,0-2.1-0.4-2.8-1.2
		c-13.9-13.9-32.8-21.6-52.4-21.6s-38.5,7.8-52.4,21.6c-1.6,1.5-4.1,1.5-5.6,0l-41.2-41.2c-0.7-0.8-1.1-1.8-1.1-2.8
		c0-1,0.4-2,1.1-2.8c26.3-26.3,62-41,99.2-41S287.9,444,314.2,470.3L314.2,470.3z"/>
	<path d="M467,321.5c0,1-0.4,2-1.1,2.8l-41.2,41.2c-0.7,0.8-1.7,1.2-2.8,1.2c-1,0-2.1-0.4-2.8-1.1c-54.2-54-127.5-84.4-204-84.4
		c-76.5,0-149.9,30.3-204,84.4c-1.6,1.5-4.1,1.5-5.6,0l-41.2-41.2c-0.7-0.8-1.1-1.8-1.1-2.8c0-1,0.4-2,1.1-2.8
		c42.2-42.2,94.4-73,151.7-89.7c65.1-15.6,133-15.6,198.1,0c0.1,0,0.1,0,0.2,0c57.3,16.6,109.5,47.5,151.7,89.7
		C466.6,319.4,467,320.4,467,321.5L467,321.5z"/>
	<path d="M215,536.4l44,44"/>
	<path d="M183.9,549.3l62.3,0l0,62.3h-62.3"/>
</g>
</svg>
