<?xml version="1.0" encoding="UTF-8"?>
<svg width="512pt" height="512pt" version="1.1" viewBox="0 0 512 512" xmlns="http://www.w3.org/2000/svg">
 <g>
  <path d="m431.02 229.64c0.74219 0.72266 1.1562 1.7188 1.1445 2.7539 0.011719 1.0508-0.39844 2.0625-1.1445 2.8008l-41.223 41.227c-1.5391 1.5195-4.0156 1.5195-5.5547 0-34.035-33.965-80.156-53.043-128.24-53.043s-94.207 19.078-128.24 53.043c-1.5352 1.5312-4.0195 1.5312-5.5547 0l-41.223-41.223c-0.74609-0.73828-1.1562-1.75-1.1445-2.8008-0.011719-1.0352 0.40234-2.0312 1.1445-2.7539 46.445-46.367 109.39-72.41 175.02-72.41s128.57 26.043 175.02 72.41z"/>
  <path d="m355.22 305.44c0.72656 0.75 1.1367 1.7539 1.1445 2.7969-0.015626 1.0469-0.42188 2.0469-1.1445 2.8008l-41.223 41.18c-0.73438 0.75781-1.7461 1.1836-2.8008 1.1836-1.0547 0-2.0625-0.42578-2.8008-1.1836-13.914-13.863-32.758-21.645-52.398-21.645s-38.484 7.7812-52.398 21.645c-1.5508 1.543-4.0547 1.543-5.6016 0l-41.223-41.199c-0.72266-0.75391-1.1289-1.7539-1.1445-2.8008 0.007813-1.043 0.41797-2.0469 1.1445-2.8008 26.336-26.273 62.02-41.027 99.223-41.027s72.887 14.754 99.223 41.027z"/>
  <path d="m508 156.56c-0.015625 1.0469-0.42188 2.0469-1.1406 2.8008l-41.227 41.199c-0.73828 0.75781-1.7461 1.1836-2.8008 1.1797-1.0469 0-2.0508-0.41016-2.8008-1.1367-54.156-54.039-127.54-84.387-204.04-84.387-76.504 0-149.88 30.348-204.04 84.387-1.5625 1.5273-4.0625 1.5078-5.6016-0.042968l-41.211-41.203c-0.71875-0.75391-1.125-1.7539-1.1406-2.7969 0.007812-1.043 0.41406-2.0469 1.1406-2.7969 42.203-42.199 94.391-73.039 151.71-89.652 65.109-15.586 132.98-15.602 198.1-0.042969 0.0625 0.03125 0.12891 0.042969 0.19922 0.042969 57.32 16.613 109.51 47.457 151.71 89.656 0.72656 0.75 1.1328 1.75 1.1406 2.793z"/>
  <path d="m300.02 415.57c0 24.312-19.707 44.023-44.02 44.023s-44.02-19.711-44.02-44.023c0-24.309 19.707-44.02 44.02-44.02s44.02 19.711 44.02 44.02"/>
 </g>
</svg>
